PathFileType	4	(X/Y/Z)	C:\Users\WrightLab\Desktop\Jo\P5V43.trc
DataRate	CameraRate	NumFrames	NumMarkers	Units	OrigDataRate	OrigDataStartFrame	OrigNumFrames
100.00	100.00	       45	19	mm	100.00	1	       860
Frame#	Time	Headset_Front			Headset_Back			Headset_Left			Headset_Right			Left_Shoulder			Right_Shoulder			Sternum			C7			Left Elbow			Right Elbow			Left Wrist			Right Wrist			Left ASIS			Right ASIS			S2			Left Knee			Right Knee			Left Ankle			Right Ankle			
		X1	Y1	Z1	X2	Y2	Z2	X3	Y3	Z3	X4	Y4	Z4	X5	Y5	Z5	X6	Y6	Z6	X7	Y7	Z7	X8	Y8	Z8	X9	Y9	Z9	X10	Y10	Z10	X11	Y11	Z11	X12	Y12	Z12	X13	Y13	Z13	X14	Y14	Z14	X15	Y15	Z15	X16	Y16	Z16	X17	Y17	Z17	X18	Y18	Z18	X19	Y19	Z19	

1	0.000										-283.79266	1509.61743	-1144.51953																-435.84033	1140.65454	-1301.95007				-349.46979	1038.20447	-1106.70081										-1.89163	469.18619	-1262.85925	-365.85690	472.49411	-1232.77771				-320.95135	73.14551	-1332.81885	
2	0.010										-283.85153	1509.52649	-1143.92090																-435.92438	1140.63635	-1301.60010				-349.40900	1038.13745	-1106.67920										-2.55752	469.89252	-1261.23877	-365.86356	472.47086	-1232.77820				-320.71368	73.47193	-1332.66870	
3	0.020										-284.00735	1509.54236	-1143.94116																-436.53436	1140.17224	-1299.58472				-349.71860	1038.12585	-1105.69568										-2.61237	469.71857	-1261.56763	-365.71957	472.59796	-1232.49121				-320.71243	73.47299	-1332.66870	
4	0.030										-283.93439	1509.32214	-1142.48694																-436.60388	1140.13843	-1299.27295				-349.43878	1037.80969	-1104.69043										-2.68236	469.58514	-1261.99756	-366.41299	472.97504	-1232.48413				-320.70984	73.47387	-1332.66858	
5	0.040										-284.11804	1509.19812	-1142.36304																-436.68240	1140.13525	-1298.99316				-349.40515	1037.77405	-1104.23901										-2.74107	469.33206	-1262.34143	-365.96585	472.22534	-1231.64246				-320.87094	73.15444	-1333.12585	
6	0.050										-284.18320	1509.08398	-1141.77112																-436.74744	1140.16650	-1298.47925				-349.37268	1037.76917	-1103.84497										-2.81790	469.14145	-1262.80811	-366.02179	472.15906	-1230.76013				-320.72769	73.47192	-1332.66980	
7	0.060										-284.30878	1509.01941	-1141.46985																-436.79852	1140.20850	-1298.08191				-348.06717	1035.70483	-1104.17993										-2.79851	469.16309	-1262.68726	-365.66110	471.97336	-1230.81897				-320.70538	73.46739	-1332.66736	
8	0.070										-284.43924	1508.82581	-1141.01624																-436.92865	1139.80029	-1296.76318				-348.13254	1035.43298	-1104.09692										-2.75620	469.31738	-1262.43604	-365.61642	472.01834	-1229.86560				-320.69611	73.48438	-1332.66882	
9	0.080										-284.62393	1508.42517	-1140.37512																-436.98517	1139.78992	-1296.37561				-346.73178	1035.29126	-1103.69202										-1.83526	471.01712	-1254.76306	-365.50363	472.07956	-1229.57849				-320.68729	73.47196	-1332.66650	
10	0.090										-284.89447	1508.15002	-1140.36768																-437.04318	1139.84949	-1295.91748				-346.57068	1034.99976	-1102.75500										-1.70979	471.13995	-1254.78955	-365.48135	472.03424	-1229.56421				-320.68628	73.47971	-1332.66736	
11	0.100										-284.95303	1508.09131	-1139.55310																-437.63394	1140.94202	-1297.18335				-346.52466	1034.83704	-1102.51465										-1.68720	471.11316	-1254.77051	-365.46622	472.02426	-1229.55664				-320.68414	73.48262	-1332.66760	
12	0.110										-285.12903	1507.87646	-1139.00159																-437.31897	1139.72339	-1294.58813				-346.11472	1034.93103	-1101.90186										-1.52230	471.22769	-1254.36353	-365.56894	471.86649	-1229.29578				-320.64767	73.47025	-1332.66296	
13	0.120										-285.32315	1507.88867	-1139.02917																-437.66232	1139.67957	-1293.75488				-346.46976	1034.82898	-1101.77600										-1.50397	471.21353	-1254.35168	-365.90228	472.03232	-1228.97339				-320.65091	73.45975	-1332.66187	
14	0.130										-285.41342	1507.72742	-1138.22534																-437.74191	1139.70544	-1293.41846				-345.83054	1034.79626	-1101.67114										-1.44947	471.22443	-1254.34265	-365.40591	471.97281	-1228.99841				-320.67050	73.48432	-1332.66675	
15	0.140										-285.54883	1507.64734	-1137.65381																-439.43631	1136.59717	-1303.62720				-345.85117	1035.12146	-1101.04028										-1.31346	471.08731	-1254.11694	-365.40704	471.96954	-1228.99866				-320.66937	73.48564	-1332.66675	
16	0.150										-285.72855	1507.68140	-1137.67371																-439.81485	1136.28870	-1302.13855				-345.40466	1035.30725	-1100.77734										-1.30222	471.05664	-1254.09912	-365.96078	472.13135	-1228.35852				-320.62210	73.69678	-1332.12964	
17	0.160										-285.89435	1507.73962	-1137.68555																-438.38226	1139.10608	-1290.62463				-344.96292	1035.40588	-1100.37366										-1.18437	471.04510	-1253.74353	-365.60785	471.90436	-1228.11755				-320.67557	73.49482	-1332.66846	
18	0.170										-286.07587	1507.36462	-1137.08533																-438.50107	1139.16943	-1290.34534				-344.72833	1035.37756	-1099.97180										-0.99434	470.81284	-1253.74634	-366.10590	472.05725	-1228.06982				-320.62357	73.70415	-1332.13074	
19	0.180										-286.17105	1507.18018	-1136.23633																-438.61429	1139.24060	-1289.94067				-344.21439	1034.94800	-1098.58582										-1.13110	471.03427	-1253.72412	-365.74606	471.46133	-1227.05737				-320.61420	73.69804	-1332.12915	
20	0.190										-286.20306	1507.26282	-1135.71008																-438.72955	1139.33362	-1289.60181				-342.53955	1035.36694	-1097.13123										-0.92873	470.85846	-1253.75110	-365.96231	471.83972	-1227.21033				-320.60080	73.70097	-1332.12842	
21	0.200										-286.20276	1507.25623	-1134.90588																-438.75552	1138.87231	-1287.26025				-344.11124	1035.23401	-1097.23596										-0.90738	470.86844	-1253.75024	-366.18509	471.70355	-1227.17920				-320.57324	73.67908	-1332.12329	
22	0.210										-286.33652	1507.34009	-1134.90637																-438.99304	1139.00146	-1287.60840				-344.11804	1034.89478	-1096.50452										-0.85486	470.91351	-1253.75830	-365.98773	471.36374	-1225.78577				-320.58353	73.71019	-1332.12817	
23	0.220										-286.41907	1507.38562	-1134.79932																-439.48300	1139.15576	-1286.83789				-344.03583	1034.85388	-1096.16785	53.06385	995.59070	-1209.33582							-0.39019	470.94250	-1253.88367	-366.31766	471.55902	-1225.83630				-320.57318	73.68540	-1332.12402	
24	0.230										-286.48520	1507.34167	-1134.51221																-439.62347	1139.02515	-1284.99475				-343.74686	1034.96606	-1095.67883	-22.13144	914.46478	-1217.60559							-0.84586	470.92938	-1253.76355	-365.92822	471.39908	-1225.61389				-320.58508	73.73381	-1332.13135	
25	0.240										-286.53021	1507.05396	-1133.74255																-440.12402	1139.02380	-1284.34460				-343.43036	1035.10608	-1095.12683	-19.70317	910.24292	-1225.14807							-0.43672	470.90405	-1253.87732	-365.97360	471.33694	-1225.47339				-320.55627	73.72467	-1332.12781	
26	0.250										-286.56406	1507.03711	-1133.39270																-439.90897	1139.16223	-1283.39673				-343.47546	1035.02246	-1094.90613	-19.73654	910.13647	-1225.34375							-1.09446	471.11169	-1253.75208	-366.66266	471.70465	-1224.95862				-320.55807	73.73864	-1332.12976	
27	0.260										-286.56595	1507.20056	-1133.16785																-440.24326	1139.54944	-1282.65771				-343.44034	1035.01367	-1094.89343	-19.74856	909.99146	-1225.40564							-1.12601	471.25397	-1253.31030	-366.66019	471.68500	-1224.95557				-320.55841	73.73821	-1332.12976	
28	0.270										-286.56931	1507.32312	-1132.92456																-440.86163	1139.61292	-1281.87805				-343.49091	1034.92969	-1094.80505	-19.80843	909.81799	-1225.75793							-1.23037	471.19052	-1253.30713	-366.18585	471.59610	-1224.48523				-320.54160	73.74143	-1332.12878	
29	0.280										-286.48337	1507.49084	-1132.57068																-441.21298	1139.91968	-1280.99304				-343.29410	1034.72778	-1093.59399	-22.59117	908.96399	-1216.46802							-1.27618	471.15878	-1253.30383	-366.10138	471.74039	-1223.37488				-320.49802	73.71647	-1332.12195	
30	0.290										-286.41864	1507.43970	-1131.96021																-441.45395	1139.93958	-1280.49817				-343.17535	1034.75513	-1093.09656	-21.16086	909.57892	-1215.92090							-1.39851	471.35907	-1252.96497	-365.62979	472.09302	-1223.13135				-320.51880	73.74797	-1332.12781	
31	0.300										-286.42932	1507.52832	-1131.93994																-441.57077	1140.05591	-1279.75696				-343.95422	1035.51062	-1091.68018	-21.67189	909.76331	-1216.19397							-1.47633	471.32825	-1252.97058	-365.84293	471.98419	-1222.70923				-320.49454	73.75532	-1332.12671	
32	0.310										-286.40125	1507.60168	-1131.91736																-441.67566	1140.19153	-1279.25073				-343.87189	1035.51941	-1091.40808	-21.87869	909.88324	-1215.02405							-2.22156	471.06738	-1253.04224	-366.09698	472.26575	-1222.53125				-320.48050	73.73681	-1332.12317	
33	0.320										-286.31589	1507.53540	-1131.30725																-442.97354	1140.82068	-1278.61218				-343.73239	1035.61096	-1091.21082	-22.06222	909.83282	-1215.16235							-2.41291	471.02344	-1253.41504	-366.10333	471.71332	-1222.25671				-320.49866	73.72525	-1332.12317	
34	0.330										-286.15253	1507.79993	-1131.02954																-442.38040	1140.20886	-1277.82532				-343.74893	1035.30249	-1090.49304	-22.21731	909.79150	-1215.27917							-2.52512	470.82785	-1253.84436	-366.80954	472.24582	-1221.92029				-320.47321	73.72385	-1332.12085	
35	0.340										-285.98505	1507.88855	-1130.46997																-442.47540	1140.44543	-1277.27148				-343.87308	1035.50452	-1089.82776	-22.36092	909.93756	-1214.06189							-3.11021	470.41458	-1253.61682	-366.51880	471.91257	-1222.01526				-320.49203	73.74795	-1332.12549	
36	0.350										-285.87524	1507.89587	-1130.11987																-442.50967	1140.66577	-1276.38904				-343.82187	1035.48206	-1089.48840	-23.33226	909.31805	-1214.50757							-3.18147	470.36102	-1253.60974	-366.78293	471.65170	-1222.05054				-320.48514	73.73997	-1332.12390	
37	0.360										-285.77264	1507.87305	-1129.78845																-442.66006	1140.79626	-1276.29907				-344.60806	1036.81250	-1089.95337	-23.40257	909.30432	-1214.56055							-3.29722	470.30609	-1253.61365	-366.92862	472.16299	-1221.80457				-320.50394	73.73801	-1332.12524	
38	0.370										-285.64569	1508.06311	-1129.62817																-443.23685	1140.76440	-1275.47754				-344.31293	1036.35852	-1089.90381	-24.16061	909.72827	-1214.25000							-3.39158	470.34598	-1253.16309	-367.70557	472.01691	-1221.32324				-320.53766	73.75835	-1332.13062	
39	0.380										-285.55783	1508.10352	-1129.60413																-443.21674	1140.95630	-1274.35120				-344.30838	1036.13550	-1087.71960	-24.24380	909.71545	-1214.31250							-3.59381	470.51105	-1252.98230	-367.58456	471.95740	-1220.10376				-320.52469	73.73179	-1332.12610	
40	0.390										-285.39990	1507.73804	-1128.67957																-443.87430	1141.32654	-1274.02429				-344.42551	1036.87952	-1087.13647	-24.31250	909.69727	-1214.36426							-3.99019	470.00363	-1252.75684	-368.59778	472.62411	-1219.37756				-320.54770	73.73519	-1332.12842	
41	0.400										-285.29364	1507.74731	-1128.66028																-444.23367	1141.27124	-1273.38550				-344.68716	1036.29456	-1086.09192	-24.86561	909.74799	-1214.62427							-4.22547	470.10706	-1252.83057	-368.82233	472.17914	-1218.69434				-320.72931	73.68683	-1331.83191	
42	0.410										-285.07550	1507.87207	-1128.26453																-444.12241	1140.73926	-1272.22644				-344.65671	1036.22449	-1085.66748	-24.93320	909.75092	-1214.67505							-4.34949	470.24704	-1252.40869	-369.17886	472.24741	-1218.71021				-320.71469	73.64980	-1331.82581	
43	0.420										-284.92697	1507.97327	-1128.08203																-444.29532	1140.59009	-1270.97974				-345.69626	1036.53931	-1084.70813	-25.00908	909.73987	-1214.73218							-4.65050	470.36472	-1252.38867	-369.65323	472.56104	-1218.33569				-320.70883	73.65160	-1331.82556	
44	0.430										-284.82565	1507.96399	-1128.06799																-444.43689	1140.67163	-1270.66138				-345.80374	1036.59387	-1084.68835	-25.06083	910.51044	-1214.41711							-4.76450	470.55908	-1252.16321	-369.65442	472.56033	-1218.33618				-320.72040	73.62380	-1331.82288	
45	0.440										-284.64249	1507.78870	-1127.45093																-444.55026	1140.76489	-1270.32141				-345.79413	1036.63855	-1084.03467	-25.06506	910.51855	-1214.42029							-4.80898	470.51932	-1252.15564	-369.69366	472.30887	-1218.28552				-320.91583	73.26557	-1331.62292	
